{
    "accessors": [
        {
            "bufferView": 0,
            "byteOffset": 0,
            "componentType": 5126,
            "count": 1916,
            "max": [
                0.8377185463905334,
                0.1691398322582245,
                -0.11299268901348114
            ],
            "min": [
                -0.8403506875038147,
                -0.11618079990148544,
                -1.4649817943572998
            ],
            "name": "accessor_buffer_Sphere_POSITION_0",
            "type": "VEC3"
        },
        {
            "bufferView": 1,
            "byteOffset": 0,
            "componentType": 5126,
            "count": 1916,
            "max": [
                1.0,
                0.9998779296875,
                0.999969482421875
            ],
            "min": [
                -1.0,
                -0.9998779296875,
                -0.999969482421875
            ],
            "name": "accessor_buffer_Sphere_NORMAL_0",
            "type": "VEC3"
        },
        {
            "bufferView": 2,
            "byteOffset": 0,
            "componentType": 5126,
            "count": 1916,
            "max": [
                0.7726571559906006,
                0.9939105361700058
            ],
            "min": [
                0.006232179701328278,
                0.01275479793548584
            ],
            "name": "accessor_buffer_Sphere_TEXCOORD_0_0",
            "type": "VEC2"
        },
        {
            "bufferView": 3,
            "byteOffset": 0,
            "componentType": 5126,
            "count": 1916,
            "max": [
                1.0,
                1.0,
                1.0
            ],
            "min": [
                1.0,
                1.0,
                1.0
            ],
            "name": "accessor_buffer_Sphere_COLOR_0_0",
            "type": "VEC3"
        },
        {
            "bufferView": 4,
            "byteOffset": 0,
            "componentType": 5123,
            "count": 10038,
            "max": [
                1915
            ],
            "min": [
                0
            ],
            "name": "accessor_buffer_Sphere_0",
            "type": "SCALAR"
        },
        {
            "bufferView": 5,
            "byteOffset": 0,
            "componentType": 5126,
            "count": 1087,
            "max": [
                0.11732575297355652,
                0.13129405677318573,
                0.11862213909626007
            ],
            "min": [
                -0.12231649458408356,
                -0.13023152947425842,
                -0.1859472393989563
            ],
            "name": "accessor_buffer_Sphere.001_POSITION_0",
            "type": "VEC3"
        },
        {
            "bufferView": 6,
            "byteOffset": 0,
            "componentType": 5126,
            "count": 1087,
            "max": [
                0.999603271484375,
                0.999969482421875,
                0.999969482421875
            ],
            "min": [
                -0.999603271484375,
                -0.999969482421875,
                -0.999969482421875
            ],
            "name": "accessor_buffer_Sphere.001_NORMAL_0",
            "type": "VEC3"
        },
        {
            "bufferView": 7,
            "byteOffset": 0,
            "componentType": 5126,
            "count": 1087,
            "max": [
                0.9827519655227661,
                1.0
            ],
            "min": [
                0.0,
                0.0768657922744751
            ],
            "name": "accessor_buffer_Sphere.001_TEXCOORD_0_0",
            "type": "VEC2"
        },
        {
            "bufferView": 8,
            "byteOffset": 0,
            "componentType": 5123,
            "count": 5412,
            "max": [
                1086
            ],
            "min": [
                0
            ],
            "name": "accessor_buffer_Sphere.001_0",
            "type": "SCALAR"
        },
        {
            "bufferView": 9,
            "byteOffset": 0,
            "componentType": 5126,
            "count": 1460,
            "max": [
                0.10668981075286865,
                0.1290697306394577,
                0.014219606295228004
            ],
            "min": [
                -0.10668981075286865,
                -0.004614498466253281,
                -0.046261560171842575
            ],
            "name": "accessor_buffer_Torus.001_POSITION_0",
            "type": "VEC3"
        },
        {
            "bufferView": 10,
            "byteOffset": 0,
            "componentType": 5126,
            "count": 1460,
            "max": [
                1.0,
                0.9983458518981934,
                0.9971405267715454
            ],
            "min": [
                -1.0,
                -0.9983370900154114,
                -0.9969753623008728
            ],
            "name": "accessor_buffer_Torus.001_NORMAL_0",
            "type": "VEC3"
        },
        {
            "bufferView": 11,
            "byteOffset": 0,
            "componentType": 5126,
            "count": 1460,
            "max": [
                0.6681547164916992,
                0.7933629006147385
            ],
            "min": [
                0.6170012950897217,
                0.7689808011054993
            ],
            "name": "accessor_buffer_Torus.001_TEXCOORD_0_0",
            "type": "VEC2"
        },
        {
            "bufferView": 12,
            "byteOffset": 0,
            "componentType": 5123,
            "count": 2190,
            "max": [
                1459
            ],
            "min": [
                0
            ],
            "name": "accessor_buffer_Torus.001_0",
            "type": "SCALAR"
        }
    ],
    "asset": {
        "version": "2.0"
    },
    "bufferViews": [
        {
            "buffer": 0,
            "byteLength": 22992,
            "byteOffset": 0,
            "byteStride": 12,
            "name": "bufferView_buffer_Sphere_POSITION_0",
            "target": 34962
        },
        {
            "buffer": 1,
            "byteLength": 22992,
            "byteOffset": 0,
            "byteStride": 12,
            "name": "bufferView_buffer_Sphere_NORMAL_0",
            "target": 34962
        },
        {
            "buffer": 2,
            "byteLength": 15328,
            "byteOffset": 0,
            "byteStride": 8,
            "name": "bufferView_buffer_Sphere_TEXCOORD_0_0",
            "target": 34962
        },
        {
            "buffer": 3,
            "byteLength": 22992,
            "byteOffset": 0,
            "byteStride": 12,
            "name": "bufferView_buffer_Sphere_COLOR_0_0",
            "target": 34962
        },
        {
            "buffer": 4,
            "byteLength": 20076,
            "byteOffset": 0,
            "name": "bufferView_buffer_Sphere_0",
            "target": 34963
        },
        {
            "buffer": 5,
            "byteLength": 13044,
            "byteOffset": 0,
            "byteStride": 12,
            "name": "bufferView_buffer_Sphere.001_POSITION_0",
            "target": 34962
        },
        {
            "buffer": 6,
            "byteLength": 13044,
            "byteOffset": 0,
            "byteStride": 12,
            "name": "bufferView_buffer_Sphere.001_NORMAL_0",
            "target": 34962
        },
        {
            "buffer": 7,
            "byteLength": 8696,
            "byteOffset": 0,
            "byteStride": 8,
            "name": "bufferView_buffer_Sphere.001_TEXCOORD_0_0",
            "target": 34962
        },
        {
            "buffer": 8,
            "byteLength": 10824,
            "byteOffset": 0,
            "name": "bufferView_buffer_Sphere.001_0",
            "target": 34963
        },
        {
            "buffer": 9,
            "byteLength": 17520,
            "byteOffset": 0,
            "byteStride": 12,
            "name": "bufferView_buffer_Torus.001_POSITION_0",
            "target": 34962
        },
        {
            "buffer": 10,
            "byteLength": 17520,
            "byteOffset": 0,
            "byteStride": 12,
            "name": "bufferView_buffer_Torus.001_NORMAL_0",
            "target": 34962
        },
        {
            "buffer": 11,
            "byteLength": 11680,
            "byteOffset": 0,
            "byteStride": 8,
            "name": "bufferView_buffer_Torus.001_TEXCOORD_0_0",
            "target": 34962
        },
        {
            "buffer": 12,
            "byteLength": 4380,
            "byteOffset": 0,
            "name": "bufferView_buffer_Torus.001_0",
            "target": 34963
        }
    ],
    "buffers": [
        {
            "byteLength": 22992,
            "name": "buffer_Sphere_POSITION",
            "uri": "data:application/octet-stream;base64,"
        },
        {
            "byteLength": 22992,
            "name": "buffer_Sphere_NORMAL",
            "uri": "data:application/octet-stream;base64,"
        },
        {
            "byteLength": 15328,
            "name": "buffer_Sphere_TEXCOORD_0",
            "uri": "data:application/octet-stream;base64,"
        },
        {
            "byteLength": 22992,
            "name": "buffer_Sphere_COLOR_0",
            "uri": "data:application/octet-stream;base64,"
        },
        {
            "byteLength": 20076,
            "name": "buffer_Sphere",
            "uri": "data:application/octet-stream;base64,"
        },
        {
            "byteLength": 13044,
            "name": "buffer_Sphere.001_POSITION",
            "uri": "data:application/octet-stream;base64,"
        },
        {
            "byteLength": 13044,
            "name": "buffer_Sphere.001_NORMAL",
            "uri": "data:application/octet-stream;base64,"
        },
        {
            "byteLength": 8696,
            "name": "buffer_Sphere.001_TEXCOORD_0",
            "uri": "data:application/octet-stream;base64,"
        },
        {
            "byteLength": 10824,
            "name": "buffer_Sphere.001",
            "uri": "data:application/octet-stream;base64,"
        },
        {
            "byteLength": 17520,
            "name": "buffer_Torus.001_POSITION",
            "uri": "data:application/octet-stream;base64,"
        },
        {
            "byteLength": 17520,
            "name": "buffer_Torus.001_NORMAL",
            "uri": "data:application/octet-stream;base64,"
        },
        {
            "byteLength": 11680,
            "name": "buffer_Torus.001_TEXCOORD_0",
            "uri": "data:application/octet-stream;base64,"
        },
        {
            "byteLength": 4380,
            "name": "buffer_Torus.001",
            "uri": "data:application/octet-stream;base64,"
        }
    ],
    "images": [
        {
            "mimeType": "image/png",
            "name": "blaire-diffuese-color",
            "uri": "data:image/png;base64,"
        }
    ],
    "materials": [
        {
            "emissiveFactor": [
                0.0,
                0.0,
                0.0
            ],
            "name": "Material",
            "pbrMetallicRoughness": {
                "baseColorFactor": [
                    0.64000004529953,
                    0.64000004529953,
                    0.64000004529953,
                    1.0
                ],
                "baseColorTexture": {
                    "index": 0,
                    "texCoord": 0
                },
                "metallicFactor": 0.0,
                "roughnessFactor": 1.0
            }
        }
    ],
    "meshes": [
        {
            "name": "Sphere",
            "primitives": [
                {
                    "attributes": {
                        "COLOR_0": 3,
                        "NORMAL": 1,
                        "POSITION": 0,
                        "TEXCOORD_0": 2
                    },
                    "indices": 4,
                    "material": 0,
                    "mode": 4
                }
            ]
        },
        {
            "name": "Sphere.001",
            "primitives": [
                {
                    "attributes": {
                        "NORMAL": 6,
                        "POSITION": 5,
                        "TEXCOORD_0": 7
                    },
                    "indices": 8,
                    "material": 0,
                    "mode": 4
                }
            ]
        },
        {
            "name": "Torus.001",
            "primitives": [
                {
                    "attributes": {
                        "NORMAL": 10,
                        "POSITION": 9,
                        "TEXCOORD_0": 11
                    },
                    "indices": 12,
                    "material": 0,
                    "mode": 4
                }
            ]
        }
    ],
    "nodes": [
        {
            "mesh": 0,
            "name": "Sphere",
            "rotation": [
                0.0,
                0.0,
                0.0,
                1.0
            ],
            "scale": [
                1.0,
                1.0,
                1.0
            ],
            "translation": [
                0.0013160643866285682,
                -0.03829513117671013,
                1.4670273065567017
            ]
        },
        {
            "mesh": 1,
            "name": "Sphere.001",
            "rotation": [
                0.0,
                0.0,
                0.0,
                1.0
            ],
            "scale": [
                1.0,
                1.0,
                1.0
            ],
            "translation": [
                1.330399391008541e-05,
                -0.017004452645778656,
                1.5010346174240112
            ]
        },
        {
            "mesh": 2,
            "name": "Torus.001",
            "rotation": [
                0.0,
                0.0,
                0.0,
                1.0
            ],
            "scale": [
                1.0,
                1.0,
                1.0
            ],
            "translation": [
                8.669291128171608e-05,
                -0.12909455597400665,
                1.4772088527679443
            ]
        },
        {
            "children": [
                1,
                2,
                0
            ],
            "matrix": [
                1.0,
                0.0,
                0.0,
                0.0,
                0.0,
                0.0,
                -1.0,
                0.0,
                0.0,
                1.0,
                0.0,
                0.0,
                0.0,
                0.0,
                0.0,
                1.0
            ],
            "name": "Scene_root"
        }
    ],
    "samplers": [
        {
            "magFilter": 9729,
            "minFilter": 9987,
            "name": "blaire-diffuese-color",
            "wrapS": 10497,
            "wrapT": 10497
        }
    ],
    "scene": 0,
    "scenes": [
        {
            "extras": {
                "background_color": [
                    0.05087608844041824,
                    0.05087608844041824,
                    0.05087608844041824
                ],
                "frames_per_second": 24
            },
            "name": "Scene",
            "nodes": [
                3
            ]
        }
    ],
    "textures": [
        {
            "name": "blaire-diffuese-color",
            "sampler": 0,
            "source": 0
        }
    ]
}
