{
    "accessors": [
        {
            "bufferView": 0,
            "byteOffset": 0,
            "componentType": 5126,
            "count": 4576,
            "max": [
                192.57237243652344,
                426.5265197753906,
                220.85079956054688
            ],
            "min": [
                -190.81846618652344,
                -428.41925048828125,
                -223.64634704589844
            ],
            "name": "accessor_buffer_cam_POSITION_0",
            "type": "VEC3"
        },
        {
            "bufferView": 1,
            "byteOffset": 0,
            "componentType": 5126,
            "count": 4576,
            "max": [
                1.0,
                1.0,
                1.0
            ],
            "min": [
                -1.0,
                -1.0,
                -1.0
            ],
            "name": "accessor_buffer_cam_NORMAL_0",
            "type": "VEC3"
        },
        {
            "bufferView": 2,
            "byteOffset": 0,
            "componentType": 5123,
            "count": 4584,
            "max": [
                4575
            ],
            "min": [
                0
            ],
            "name": "accessor_buffer_cam_0",
            "type": "SCALAR"
        }
    ],
    "asset": {
        "version": "2.0"
    },
    "bufferViews": [
        {
            "buffer": 0,
            "byteLength": 54912,
            "byteOffset": 0,
            "byteStride": 12,
            "name": "bufferView_buffer_cam_POSITION_0",
            "target": 34962
        },
        {
            "buffer": 0,
            "byteLength": 54912,
            "byteOffset": 54912,
            "byteStride": 12,
            "name": "bufferView_buffer_cam_NORMAL_0",
            "target": 34962
        },
        {
            "buffer": 0,
            "byteLength": 9168,
            "byteOffset": 109824,
            "name": "bufferView_buffer_cam_0",
            "target": 34963
        }
    ],
    "buffers": [
        {
            "byteLength": 118992,
            "name": "buffer_camcorder",
            "uri": "data:application/octet-stream;base64,"
        }
    ],
    "materials": [
        {
            "emissiveFactor": [
                0.0,
                0.0,
                0.0
            ],
            "name": "Material",
            "pbrMetallicRoughness": {
                "baseColorFactor": [
                    0.17122751474380493,
                    0.17122751474380493,
                    0.17122751474380493,
                    1.0
                ],
                "metallicFactor": 0.0,
                "roughnessFactor": 1.0
            }
        }
    ],
    "meshes": [
        {
            "name": "cam",
            "primitives": [
                {
                    "attributes": {
                        "NORMAL": 1,
                        "POSITION": 0
                    },
                    "indices": 2,
                    "material": 0,
                    "mode": 4
                }
            ]
        }
    ],
    "nodes": [
        {
            "mesh": 0,
            "name": "cam",
            "rotation": [
                0.0,
                0.0,
                0.0,
                1.0
            ],
            "scale": [
                0.0017694520065560937,
                0.0017694520065560937,
                0.0017694520065560937
            ],
            "translation": [
                0.0,
                0.0,
                0.0
            ]
        },
        {
            "children": [
                0
            ],
            "matrix": [
                -1.0,
                0.0,
                0.0,
                0.0,
                0.0,
                0.0,
                1.0,
                0.0,
                0.0,
                1.0,
                0.0,
                0.0,
                0.0,
                0.0,
                0.0,
                1.0
            ],
            "name": "Scene_root"
        }
    ],
    "scene": 0,
    "scenes": [
        {
            "extras": {
                "background_color": [
                    0.05087608844041824,
                    0.05087608844041824,
                    0.05087608844041824
                ],
                "frames_per_second": 24
            },
            "name": "Scene",
            "nodes": [
                1
            ]
        }
    ]
}
