{
    "accessors": [
        {
            "bufferView": 0,
            "byteOffset": 0,
            "componentType": 5126,
            "count": 324,
            "max": [
                0.866025447845459,
                1.0,
                98.60391235351562
            ],
            "min": [
                -0.866025447845459,
                -1.0,
                0.013116955757141113
            ],
            "name": "accessor_buffer_Cylinder.003_POSITION_0",
            "type": "VEC3"
        },
        {
            "bufferView": 1,
            "byteOffset": 0,
            "componentType": 5126,
            "count": 324,
            "max": [
                1.0,
                0.8660255074501038,
                1.0
            ],
            "min": [
                -1.0,
                -0.8660257458686829,
                -1.0
            ],
            "name": "accessor_buffer_Cylinder.003_NORMAL_0",
            "type": "VEC3"
        },
        {
            "bufferView": 2,
            "byteOffset": 0,
            "componentType": 5123,
            "count": 540,
            "max": [
                323
            ],
            "min": [
                0
            ],
            "name": "accessor_buffer_Cylinder.003_0",
            "type": "SCALAR"
        }
    ],
    "asset": {
        "version": "2.0"
    },
    "bufferViews": [
        {
            "buffer": 0,
            "byteLength": 3888,
            "byteOffset": 0,
            "byteStride": 12,
            "name": "bufferView_buffer_Cylinder.003_POSITION_0",
            "target": 34962
        },
        {
            "buffer": 0,
            "byteLength": 3888,
            "byteOffset": 3888,
            "byteStride": 12,
            "name": "bufferView_buffer_Cylinder.003_NORMAL_0",
            "target": 34962
        },
        {
            "buffer": 0,
            "byteLength": 1080,
            "byteOffset": 7776,
            "name": "bufferView_buffer_Cylinder.003_0",
            "target": 34963
        }
    ],
    "buffers": [
        {
            "byteLength": 8856,
            "name": "buffer_pole-blue",
            "uri": "data:application/octet-stream;base64,"
        }
    ],
    "materials": [
        {
            "emissiveFactor": [
                0.0,
                0.0,
                0.0
            ],
            "name": "blue",
            "pbrMetallicRoughness": {
                "baseColorFactor": [
                    0.1282690018415451,
                    0.15144699811935425,
                    0.6399999856948853,
                    1.0
                ],
                "metallicFactor": 0.0,
                "roughnessFactor": 1.0
            }
        }
    ],
    "meshes": [
        {
            "name": "Cylinder.003",
            "primitives": [
                {
                    "attributes": {
                        "NORMAL": 1,
                        "POSITION": 0
                    },
                    "indices": 2,
                    "material": 0,
                    "mode": 4
                }
            ]
        }
    ],
    "nodes": [
        {
            "mesh": 0,
            "name": "Cylinder",
            "rotation": [
                0.0,
                0.0,
                0.0,
                1.0
            ],
            "scale": [
                0.02886335738003254,
                0.02886335738003254,
                0.02886335738003254
            ],
            "translation": [
                0.0,
                0.0,
                0.004977554082870483
            ]
        },
        {
            "children": [
                0
            ],
            "matrix": [
                -1.0,
                0.0,
                0.0,
                0.0,
                0.0,
                0.0,
                1.0,
                0.0,
                0.0,
                1.0,
                0.0,
                0.0,
                0.0,
                0.0,
                0.0,
                1.0
            ],
            "name": "Scene_root"
        }
    ],
    "scene": 0,
    "scenes": [
        {
            "extras": {
                "background_color": [
                    0.05087608844041824,
                    0.05087608844041824,
                    0.05087608844041824
                ],
                "frames_per_second": 24
            },
            "name": "Scene",
            "nodes": [
                1
            ]
        }
    ]
}
